<mxfile host="Electron" agent="Mozilla/5.0 (X11; Linux x86_64) AppleWebKit/537.36 (KHTML, like Gecko) draw.io/24.7.17 Chrome/128.0.6613.36 Electron/32.0.1 Safari/537.36" version="24.7.17">
  <diagram name="Page-1" id="6N97ICzL5DzA9CgmMXFH">
    <mxGraphModel dx="1114" dy="841" grid="1" gridSize="10" guides="1" tooltips="1" connect="1" arrows="1" fold="1" page="1" pageScale="1" pageWidth="850" pageHeight="1100" math="0" shadow="0">
      <root>
        <mxCell id="0" />
        <mxCell id="1" parent="0" />
        <mxCell id="2QEwXNkCGtGHp0sPr9w8-1" value="ARIA RDK&amp;nbsp;" style="rounded=1;whiteSpace=wrap;html=1;arcSize=5;fontFamily=Clash Display;labelPosition=center;verticalLabelPosition=bottom;align=center;verticalAlign=top;fontSize=18;" vertex="1" parent="1">
          <mxGeometry x="170" y="110" width="620" height="590" as="geometry" />
        </mxCell>
        <mxCell id="2QEwXNkCGtGHp0sPr9w8-2" value="&lt;font face=&quot;Clash Display&quot; style=&quot;font-size: 18px;&quot;&gt;Graphical User Interface&lt;/font&gt;" style="rounded=1;whiteSpace=wrap;html=1;fillColor=#dae8fc;strokeColor=#6c8ebf;fontSize=18;" vertex="1" parent="1">
          <mxGeometry x="190" y="130" width="240" height="240" as="geometry" />
        </mxCell>
        <mxCell id="2QEwXNkCGtGHp0sPr9w8-3" value="&lt;font face=&quot;Clash Display&quot;&gt;Operation Scheduler&amp;nbsp;&lt;br&gt;Data I/O&lt;/font&gt;" style="rounded=1;whiteSpace=wrap;html=1;fillColor=#dae8fc;strokeColor=#6c8ebf;fontSize=18;" vertex="1" parent="1">
          <mxGeometry x="187.5" y="430" width="245" height="250" as="geometry" />
        </mxCell>
        <mxCell id="2QEwXNkCGtGHp0sPr9w8-5" value="Octave (R) Elaboration Engine" style="rounded=1;whiteSpace=wrap;html=1;fontFamily=Clash Display;fillColor=#dae8fc;strokeColor=#6c8ebf;fontSize=18;" vertex="1" parent="1">
          <mxGeometry x="530" y="130" width="240" height="240" as="geometry" />
        </mxCell>
        <mxCell id="2QEwXNkCGtGHp0sPr9w8-6" value="Workspace and Plotting" style="rounded=1;whiteSpace=wrap;html=1;fontFamily=Clash Display;fillColor=#dae8fc;strokeColor=#6c8ebf;fontSize=18;" vertex="1" parent="1">
          <mxGeometry x="530" y="430" width="245" height="250" as="geometry" />
        </mxCell>
        <mxCell id="2QEwXNkCGtGHp0sPr9w8-7" value="" style="shape=flexArrow;endArrow=classic;startArrow=classic;html=1;rounded=0;entryX=0;entryY=0.5;entryDx=0;entryDy=0;fontSize=18;" edge="1" parent="1" source="2QEwXNkCGtGHp0sPr9w8-2" target="2QEwXNkCGtGHp0sPr9w8-5">
          <mxGeometry width="100" height="100" relative="1" as="geometry">
            <mxPoint x="370" y="480" as="sourcePoint" />
            <mxPoint x="470" y="380" as="targetPoint" />
          </mxGeometry>
        </mxCell>
        <mxCell id="2QEwXNkCGtGHp0sPr9w8-8" value="" style="shape=flexArrow;endArrow=classic;startArrow=classic;html=1;rounded=0;entryX=0.5;entryY=0;entryDx=0;entryDy=0;fontSize=18;" edge="1" parent="1" source="2QEwXNkCGtGHp0sPr9w8-2" target="2QEwXNkCGtGHp0sPr9w8-3">
          <mxGeometry width="100" height="100" relative="1" as="geometry">
            <mxPoint x="440" y="260" as="sourcePoint" />
            <mxPoint x="540" y="260" as="targetPoint" />
          </mxGeometry>
        </mxCell>
        <mxCell id="2QEwXNkCGtGHp0sPr9w8-9" value="" style="shape=flexArrow;endArrow=classic;startArrow=classic;html=1;rounded=0;fontSize=18;" edge="1" parent="1" source="2QEwXNkCGtGHp0sPr9w8-2" target="2QEwXNkCGtGHp0sPr9w8-6">
          <mxGeometry width="100" height="100" relative="1" as="geometry">
            <mxPoint x="440" y="260" as="sourcePoint" />
            <mxPoint x="540" y="260" as="targetPoint" />
          </mxGeometry>
        </mxCell>
        <mxCell id="2QEwXNkCGtGHp0sPr9w8-10" value="" style="shape=flexArrow;endArrow=classic;startArrow=classic;html=1;rounded=0;exitX=0.5;exitY=1;exitDx=0;exitDy=0;fontSize=18;" edge="1" parent="1" source="2QEwXNkCGtGHp0sPr9w8-5" target="2QEwXNkCGtGHp0sPr9w8-6">
          <mxGeometry width="100" height="100" relative="1" as="geometry">
            <mxPoint x="320" y="380" as="sourcePoint" />
            <mxPoint x="320" y="440" as="targetPoint" />
          </mxGeometry>
        </mxCell>
      </root>
    </mxGraphModel>
  </diagram>
</mxfile>
